<svg width="96" height="96" viewBox="0 0 480 480" fill="none" xmlns="http://www.w3.org/2000/svg">
<path d="M115 305.2C93.1333 305.2 73.5333 301.733 56.2 294.8C38.8667 287.733 25.1333 277.267 15 263.4C5 249.533 5.96046e-08 232.333 5.96046e-08 211.8C5.96046e-08 210.067 5.96046e-08 208.333 5.96046e-08 206.6C5.96046e-08 204.867 5.96046e-08 203.133 5.96046e-08 201.4H80.6C80.6 202.867 80.6 204.333 80.6 205.8C80.6 207.267 80.6 208.733 80.6 210.2C80.6 219.533 83.4667 227.333 89.2 233.6C95.0667 239.867 103.933 243 115.8 243C127.267 243 136.267 241.333 142.8 238C149.467 234.533 152.8 228.933 152.8 221.2C152.8 215.467 149.667 210.133 143.4 205.2C137.267 200.267 128.933 195.6 118.4 191.2C108 186.8 96.4 182.6 83.6 178.6C69.7333 174.2 56.5333 168.267 44 160.8C31.6 153.333 21.4667 143.667 13.6 131.8C5.73333 119.8 1.8 104.933 1.8 87.2C1.8 68.9333 6.86667 53.3333 17 40.4C27.1333 27.3333 40.7333 17.3333 57.8 10.4C75 3.46665 94.0667 -2.38419e-05 115 -2.38419e-05C136.733 -2.38419e-05 156.133 3.39998 173.2 10.2C190.4 17 204 27 214 40.2C224 53.4 229 69.7333 229 89.2C229 90.9333 229 92.6 229 94.2C229 95.8 229 97.4667 229 99.2H148.4C148.4 98.5333 148.4 97.5333 148.4 96.2C148.4 94.7333 148.4 93.6666 148.4 93C148.4 84.3333 145.933 77 141 71C136.2 65 127.867 62 116 62C104.267 62 95.2 64.1333 88.8 68.4C82.5333 72.6667 79.4 78.8667 79.4 87C79.4 92.7333 82.0667 97.8 87.4 102.2C92.7333 106.467 100.067 110.467 109.4 114.2C118.867 117.933 129.533 121.933 141.4 126.2C159.267 132.467 174.933 139.4 188.4 147C201.867 154.467 212.333 163.867 219.8 175.2C227.4 186.533 231.2 201.067 231.2 218.8C231.2 237.333 226.2 253.067 216.2 266C206.2 278.8 192.4 288.533 174.8 295.2C157.333 301.867 137.4 305.2 115 305.2Z" fill="#F3D4B8"/>
<path d="M325.8 358H245V63H358C380.4 63 399.933 67.4667 416.6 76.4C433.267 85.2 446.2 97.2667 455.4 112.6C464.6 127.933 469.2 145.267 469.2 164.6C469.2 183.933 464.6 201.533 455.4 217.4C446.2 233.133 433.267 245.733 416.6 255.2C399.933 264.533 380.4 269.2 358 269.2H325.8V358ZM325.8 245.8L289.4 209.4H349.8C356.467 209.4 362.667 207.8 368.4 204.6C374.267 201.267 379 196.267 382.6 189.6C386.2 182.933 388 174.6 388 164.6C388 154.6 386.2 146.533 382.6 140.4C379 134.267 374.267 129.867 368.4 127.2C362.667 124.4 356.467 123 349.8 123H289.4L325.8 86.6V245.8Z" fill="#F3D4B8"/>
</svg>
